<svg id="Capa_1" enable-background="new 0 0 512 512" height="512" viewBox="0 0 512 512" width="512" xmlns="http://www.w3.org/2000/svg"><g><path d="m504.5 366.567c4.143 0 7.5-3.358 7.5-7.5v-85.722c0-7.543-6.149-13.68-13.708-13.68h-27.706v-18.179c12.137-3.304 21.09-14.416 21.09-27.585v-18.256c0-6.605-5.36-11.979-11.95-11.979h-33.251c-6.59 0-11.95 5.374-11.95 11.979v18.256c0 13.167 8.94 24.277 21.062 27.583v18.182h-58.588v-18.179c12.137-3.304 21.09-14.416 21.09-27.585v-18.256c0-6.605-5.373-11.979-11.979-11.979h-33.223c-6.605 0-11.979 5.374-11.979 11.979v18.256c0 13.169 8.953 24.281 21.09 27.585v18.179h-43.394v-77.514c0-16.294-5.897-22.248-10.204-26.596-2.177-2.197-3.337-3.369-3.856-5.881v-5.962-30.388c0-7.387-6.009-13.396-13.396-13.396h-20.325c-7.387 0-13.396 6.01-13.396 13.396v30.388 5.962c-.52 2.513-1.68 3.684-3.856 5.881-4.306 4.348-10.203 10.302-10.203 26.596v77.514h-26.981v-49.251c0-25.449-12.427-31.69-32.706-39.767l-31.698-12.61c14.209-13.193 23.868-30.925 23.868-46.811v-12.425c15.401-7.545 26.177-23.456 32.801-48.351.095-.357.163-.722.205-1.089.37-3.293-.968-6.305-3.58-8.056-4.864-3.259-9.622-.645-17.504 3.685-2.601 1.428-5.918 3.25-9.349 4.864 2.852-7.608 4.255-15.374 3.551-21.266-.282-2.299-.755-6.148-4.643-8.121-3.264-1.655-6.174-.505-9.146 1.031-19.22 10.072-24.978 8.183-34.513 5.055-4.644-1.523-10.422-3.419-18.191-4.124-24.069-2.187-43.909 3.446-57.367 16.288-13.052 12.453-19.433 31.355-18.473 54.667v17.842c0 15.84 9.602 33.517 23.735 46.698l-31.965 12.724c-20.293 8.083-32.73 14.328-32.73 39.766v49.251h-5.002c-7.543 0-13.68 6.137-13.68 13.68v205.319c0 7.543 6.137 13.68 13.68 13.68h484.612c7.559 0 13.708-6.137 13.708-13.68v-84.957c0-4.142-3.357-7.5-7.5-7.5s-7.5 3.358-7.5 7.5v83.637h-89.2l-5.111-28.74h41.886c4.041 0 8.273-2.564 8.62-8.299.37-6.181 5.324-11.189 11.515-11.649 5.04-.369 8.427-4.081 8.427-9.237v-86.8c0-5.174-3.387-8.897-8.418-9.265-6.199-.46-11.153-5.469-11.523-11.655-.347-5.729-4.579-8.293-8.621-8.293l-171.213.028c-4.143 0-7.5 3.359-7.499 7.501.001 4.143 3.359 7.5 7.501 7.499l165.845-.027c2.588 9.105 9.795 16.326 18.929 18.933v77.33c-9.125 2.604-16.329 9.82-18.924 18.936h-39.191l-7.796-43.84c11.67-1.663 20.675-11.729 20.675-23.866 0-13.279-10.804-24.083-24.083-24.083h-66.416c-13.295 0-24.11 10.804-24.11 24.083 0 12.137 9.015 22.204 20.7 23.866l-7.809 43.839h-110.395l-7.809-43.839c11.685-1.662 20.7-11.729 20.7-23.866 0-13.279-10.815-24.083-24.11-24.083h-66.388c-13.295 0-24.111 10.804-24.111 24.083 0 12.137 9.016 22.204 20.7 23.866l-7.808 43.839h-39.182c-2.605-9.105-9.82-16.327-18.946-18.934v-77.33c9.106-2.602 16.312-9.808 18.934-18.934l165.981.027h.001c4.142 0 7.499-3.357 7.5-7.499s-3.356-7.5-7.499-7.501l-171.355-.028c-4.026 0-8.245 2.564-8.591 8.278-.389 6.194-5.354 11.212-11.544 11.67-5.04.369-8.427 4.092-8.427 9.266v86.8c0 5.157 3.387 8.869 8.42 9.237 6.196.459 11.162 5.477 11.55 11.654.347 5.73 4.565 8.294 8.592 8.294h41.895l-5.119 28.74h-89.173v-202.681h482v84.402c0 4.142 3.357 7.5 7.5 7.5zm-54.976-152.666v-15.235h27.151v15.235c0 7.494-6.097 13.59-13.59 13.59-7.477 0-13.561-6.097-13.561-13.59zm-73.616 0v-15.235h27.18v15.235c0 7.494-6.097 13.59-13.59 13.59s-13.59-6.097-13.59-13.59zm16.657 263.443h-73.938l5.119-28.74h63.708zm-79.274-111.445c0-5.008 4.087-9.083 9.11-9.083h66.416c5.009 0 9.083 4.075 9.083 9.083 0 5.024-4.074 9.112-9.083 9.112h-66.416c-5.023 0-9.11-4.088-9.11-9.112zm20.893 24.112h42.851l7.752 43.594h-58.369zm-25.673 58.593-5.119 28.74h-94.812l-5.119-28.74zm-194.44-82.705c0-5.008 4.087-9.083 9.111-9.083h66.388c5.023 0 9.11 4.075 9.11 9.083 0 5.024-4.087 9.112-9.11 9.112h-66.388c-5.024 0-9.111-4.088-9.111-9.112zm20.893 24.112h42.824l7.765 43.594h-58.354zm-10.436 58.593h63.697l5.119 28.74h-73.935zm153.84-246.791h45.236v22.191h-45.236zm13.964-50.274c.017-.108.013-.218.026-.327h17.255c.013.109.009.219.026.327 1.229 7.633 5.203 11.644 8.104 14.573 3.274 3.306 5.861 5.917 5.861 16.04v4.661h-45.236v-4.661c0-10.123 2.586-12.734 5.86-16.04 2.902-2.928 6.875-6.94 8.104-14.573zm.096-36.611h17.116v21.285h-17.116zm-14.06 124.076h45.236v20.661h-45.236zm-173.027-66.332c1.54.685 3.095 1.317 4.666 1.879 6.416 2.315 12.053 3.394 17.739 3.394 5.7 0 11.332-1.08 17.688-3.385 1.445-.516 2.875-1.097 4.293-1.717v4.491c0 13.387-9.86 24.277-21.98 24.277-12.354 0-22.405-10.891-22.405-24.277v-4.662zm-16.87-123.103c10.234-9.765 26.026-13.984 45.656-12.202 6.071.551 10.545 2.018 14.871 3.438 11.077 3.634 20.148 5.52 37.147-1.716-1.423 5.663-4.272 12.313-8.218 17.643-1.606 2.172-1.922 5.04-.824 7.508s3.438 4.156 6.127 4.418c8.547.831 18.026-3.259 26.024-7.426-14.986 35.555-41.031 29.532-73.092 22.112-13.291-3.075-26.814-6.205-39.825-6.205-7.356 0-14.549 1.001-21.438 3.579 1.261-13.291 5.804-23.738 13.572-31.149zm-13.829 61.657v-13.826c15.928-9.209 36.471-4.455 58.14.559 12.862 2.976 26.026 6.022 38.599 6.022 3.2 0 6.361-.206 9.471-.653v7.898c0 18.19-19.285 41.644-40.497 49.219-4.699 1.705-8.706 2.499-12.607 2.499-3.896 0-7.915-.795-12.668-2.51-21.165-7.567-40.438-31.021-40.438-49.208zm-40.961 99.188c0-15.231 3.815-18.077 23.279-25.83l33.381-13.288v6.036c0 21.658 16.78 39.277 37.405 39.277 20.391 0 36.98-17.62 36.98-39.277v-6.038l33.406 13.289c19.443 7.744 23.254 10.588 23.254 25.83v49.251h-29.107v-27.112c0-4.142-3.357-7.5-7.5-7.5s-7.5 3.358-7.5 7.5v27.112h-98.84v-27.112c0-4.142-3.357-7.5-7.5-7.5s-7.5 3.358-7.5 7.5v27.112h-29.758z"/></g></svg>